HIERARCHY
ROOT root
{
	OFFSET 0.000000 0.000000 0.000000
	CHANNELS 6 Xposition Yposition Zposition Zrotation Yrotation Xrotation
	JOINT lhip
	{
		OFFSET 0.058581 -0.082280 -0.017664
		CHANNELS 3 Zrotation Yrotation Xrotation
		JOINT lknee
		{
			OFFSET 0.043451 -0.386469 0.008037
			CHANNELS 3 Zrotation Yrotation Xrotation
			JOINT lankle
			{
				OFFSET -0.014790 -0.426874 -0.037428
				CHANNELS 3 Zrotation Yrotation Xrotation
				JOINT ltoe
				{
					OFFSET 0.041054 -0.060286 0.122042
					CHANNELS 3 Zrotation Yrotation Xrotation
					End Site
					{
						OFFSET 0.000000 0.000000 0.000000
					}
				}
			}
		}
	}
	JOINT rhip
	{
		OFFSET -0.060310 -0.090513 -0.013543
		CHANNELS 3 Zrotation Yrotation Xrotation
		JOINT rknee
		{
			OFFSET -0.043257 -0.383688 -0.004843
			CHANNELS 3 Zrotation Yrotation Xrotation
			JOINT rankle
			{
				OFFSET 0.019056 -0.420046 -0.034562
				CHANNELS 3 Zrotation Yrotation Xrotation
				JOINT rtoe
				{
					OFFSET -0.034840 -0.062106 0.130323
					CHANNELS 3 Zrotation Yrotation Xrotation
					End Site
					{
						OFFSET 0.000000 0.000000 0.000000
					}
				}
			}
		}
	}
	JOINT lowerback
	{
		OFFSET 0.004439 0.124404 -0.038385
		CHANNELS 3 Zrotation Yrotation Xrotation
		JOINT upperback
		{
			OFFSET 0.004488 0.137956 0.026820
			CHANNELS 3 Zrotation Yrotation Xrotation
			JOINT chest
			{
				OFFSET -0.002265 0.056032 0.002855
				CHANNELS 3 Zrotation Yrotation Xrotation
				JOINT lowerneck
				{
					OFFSET -0.013390 0.211636 -0.033468
					CHANNELS 3 Zrotation Yrotation Xrotation
					JOINT upperneck
					{
						OFFSET 0.010113 0.088937 0.050410
						CHANNELS 3 Zrotation Yrotation Xrotation
						End Site
						{
							OFFSET 0.000000 0.000000 0.000000
						}
					}
				}
				JOINT lclavicle
				{
					OFFSET 0.071702 0.114000 -0.018898
					CHANNELS 3 Zrotation Yrotation Xrotation
					JOINT lshoulder
					{
						OFFSET 0.122921 0.045205 -0.019046
						CHANNELS 3 Zrotation Yrotation Xrotation
						JOINT lelbow
						{
							OFFSET 0.255332 -0.015649 -0.022946
							CHANNELS 3 Zrotation Yrotation Xrotation
							JOINT lwrist
							{
								OFFSET 0.265709 0.012698 -0.007375
								CHANNELS 3 Zrotation Yrotation Xrotation
								End Site
								{
									OFFSET 0.000000 0.000000 0.000000
								}
							}
						}
					}
				}
				JOINT rclavicle
				{
					OFFSET -0.082954 0.112472 -0.023707
					CHANNELS 3 Zrotation Yrotation Xrotation
					JOINT rshoulder
					{
						OFFSET -0.113228 0.046853 -0.008472
						CHANNELS 3 Zrotation Yrotation Xrotation
						JOINT relbow
						{
							OFFSET -0.260127 -0.014369 -0.031269
							CHANNELS 3 Zrotation Yrotation Xrotation
							JOINT rwrist
							{
								OFFSET -0.269108 0.006794 -0.006027
								CHANNELS 3 Zrotation Yrotation Xrotation
								End Site
								{
									OFFSET 0.000000 0.000000 0.000000
								}
							}
						}
					}
				}
			}
		}
	}
}
MOTION
Frames: 17
Frame Time: 0.033333
-0.113286 0.382685 0.970600 -80.229305 0.665363 81.186413 21.983681 6.781919 3.510002 -2.763999 -0.532067 26.422516 -12.736261 2.713868 -8.092175 0.000000 -0.000000 0.000000 -4.268296 1.987415 -8.726121 -0.689449 8.552318 33.340474 2.980861 -3.530042 -20.015273 0.000000 -0.000000 0.000000 -5.027269 -3.705175 7.703328 -3.377218 -4.968061 11.077073 -4.474149 -3.661100 -4.016199 -4.272855 -4.559843 6.033038 -5.142682 -5.690127 21.368616 -21.329857 -23.407994 0.594202 -51.863462 -30.854124 18.532315 14.122738 -59.324562 16.515457 7.752369 -11.895805 6.366381 8.867091 21.205605 -4.549093 6.495703 26.514322 -23.637619 -45.501377 24.695455 -48.919204 -9.199915 6.873229 -14.120078 
-0.113507 0.389686 0.975974 -78.938670 -0.129965 80.434610 22.244385 5.657842 -0.301327 -3.636174 -0.058905 32.641846 -14.387367 1.095584 -2.942519 0.000000 -0.000000 0.000000 -4.750782 0.931422 -7.141561 -1.130625 8.065322 32.089326 1.974351 -3.036745 -19.546880 0.000000 -0.000000 0.000000 -4.518569 -2.231461 8.182444 -4.299281 -4.414784 11.393549 -5.083905 -2.939255 -4.462789 -5.327862 -2.850858 8.526718 -5.372256 -3.335788 21.613212 -21.379497 -23.418194 0.147360 -52.693149 -28.741833 18.465268 14.285748 -59.443266 15.851657 7.859466 -10.723167 5.475826 7.150279 22.438798 -5.148710 4.296055 28.707632 -25.761341 -49.998528 26.947278 -51.690145 -11.819284 7.279972 -12.626986 
-0.112868 0.395023 0.979950 -78.389141 -0.993846 79.816932 22.186496 4.807171 -3.480938 -4.039990 0.851284 37.298606 -14.827740 0.196024 2.397435 0.000000 -0.000000 0.000000 -5.339013 0.104806 -6.131830 -1.436738 8.068412 31.167582 1.064244 -2.661731 -19.082078 0.000000 -0.000000 0.000000 -3.736144 -0.853361 8.886491 -5.295130 -3.329303 11.385461 -5.746818 -2.145173 -4.881272 -6.012834 -2.211333 10.298329 -5.709535 -1.029086 22.478542 -21.539937 -23.011444 0.159085 -53.369117 -27.942013 17.570911 15.584388 -59.222591 13.208780 8.448021 -11.487541 2.884935 4.848657 23.735753 -5.693347 2.384299 31.176471 -27.234966 -55.010538 30.244149 -53.724248 -13.060971 8.929729 -12.035529 
-0.112609 0.398033 0.983298 -78.777462 -1.879577 79.218546 21.854478 4.389258 -5.235507 -4.156770 1.708240 39.985833 -14.941784 0.281838 5.437271 0.000000 -0.000000 0.000000 -5.895730 -0.193422 -5.236769 -1.719250 8.497981 30.224725 0.418792 -2.282660 -18.611629 0.000000 -0.000000 0.000000 -3.008377 0.304181 9.662489 -6.351835 -1.772037 11.021927 -6.217293 -1.186529 -5.073088 -6.364737 -1.916589 11.420792 -5.636600 1.321802 23.676159 -21.557074 -22.636310 -0.253360 -54.248096 -26.556708 16.864465 18.795898 -59.758993 8.906460 10.340716 -11.726779 -0.380060 2.480324 25.114894 -6.463760 1.239316 34.329298 -27.792381 -59.779315 34.726763 -54.735337 -13.557960 9.541187 -9.734477 
-0.111777 0.398475 0.986145 -79.126731 -2.551165 79.237308 21.031968 3.879562 -6.838605 -4.284816 1.725516 41.133848 -13.918055 -0.085613 4.556197 0.000000 -0.000000 0.000000 -6.392061 -0.771540 -4.977725 -2.019330 9.099267 29.233367 0.284294 -1.885373 -18.264643 0.000000 -0.000000 0.000000 -2.298772 1.221916 9.926416 -7.248863 -0.609391 10.440852 -6.460055 -0.308763 -5.484658 -6.578725 -2.266424 12.802676 -5.276502 3.769755 24.791747 -22.181744 -22.203173 -0.425610 -54.540881 -25.208947 15.815838 22.433845 -60.296937 3.712885 12.265770 -9.833233 -0.616009 0.561817 27.022953 -7.046925 0.907397 37.472626 -27.129909 -62.836321 40.236332 -55.150135 -12.601040 10.599370 -8.496768 
-0.110883 0.396947 0.988649 -79.477955 -2.834916 79.325234 20.184344 3.108735 -7.525667 -5.462242 -0.149553 40.284480 -14.659372 -2.603454 3.105157 0.000000 -0.000000 0.000000 -6.554094 -0.960445 -4.700558 -2.579422 9.103217 28.207215 0.531026 -1.185215 -17.862034 0.000000 -0.000000 0.000000 -1.675181 1.704799 10.143625 -7.893803 0.300757 9.868649 -6.546022 0.406757 -5.843489 -5.979809 -2.047535 13.598517 -4.803590 5.239112 26.076716 -22.498722 -21.105636 -0.620579 -55.281078 -23.796698 14.754112 27.714533 -60.723175 -2.858950 13.411357 -10.432137 -3.300495 -0.859503 28.551509 -7.515187 1.711175 42.155110 -25.784577 -63.239217 46.381646 -52.801171 -11.894102 11.676482 -7.238084 
-0.110055 0.393372 0.990324 -79.632297 -2.774412 79.456672 19.194457 1.686288 -7.299807 -6.885637 -3.227651 37.469464 -16.371024 -4.495748 3.240632 0.000000 -0.000000 0.000000 -6.564269 -0.778078 -4.212543 -3.114915 8.531807 26.939430 0.671621 -0.591519 -17.349937 0.000000 -0.000000 0.000000 -1.071265 1.895001 10.267017 -8.242166 0.903529 9.219730 -6.496032 1.010202 -6.014140 -5.119336 -1.648710 14.211388 -4.419981 6.085130 26.890570 -22.317012 -20.164971 -0.566073 -56.194955 -22.441889 14.107725 33.002283 -60.154256 -10.182004 14.144212 -9.650875 -6.762208 -1.999202 30.161940 -8.148533 5.067689 47.670233 -22.423191 -60.984174 51.754508 -47.296807 -9.842666 12.569396 -4.895266 
-0.110279 0.387383 0.990637 -79.792139 -2.517675 79.555142 17.898831 0.274578 -6.140358 -7.642442 -6.758698 33.529025 -17.103340 -5.390702 2.278118 0.000000 -0.000000 0.000000 -6.639235 -0.775418 -3.614863 -3.416151 8.118143 25.710495 0.882202 0.013832 -17.067720 0.000000 -0.000000 0.000000 -0.612251 2.028868 9.887905 -8.242076 1.452350 9.224825 -6.133491 1.632375 -6.266388 -4.457463 -1.180981 14.579685 -4.345838 6.303051 27.221834 -22.238870 -19.563322 -0.253583 -57.074270 -21.353646 13.515736 36.464909 -58.663247 -16.278409 15.781093 -8.392979 -9.558082 -1.792352 32.480480 -7.633284 8.386012 52.229313 -18.588381 -53.661148 57.033144 -38.280526 -10.128473 12.503584 -1.468234 
-0.109779 0.379340 0.989385 -80.194296 -1.983730 79.856529 16.498009 -0.957210 -4.584761 -6.320737 -8.507199 29.685905 -15.725125 -4.311461 -2.133638 0.000000 -0.000000 0.000000 -6.534134 -0.374144 -3.381612 -3.565467 7.704358 24.795614 1.369076 0.265469 -16.817607 0.000000 -0.000000 0.000000 -0.112677 2.174511 9.403760 -7.906422 1.983855 9.042121 -5.771836 2.255414 -6.383944 -3.640769 -0.662863 14.411029 -4.344070 6.119711 27.978870 -22.250305 -19.277093 0.591416 -57.757500 -20.234026 12.776885 38.870922 -56.871232 -20.146073 15.655902 -7.238390 -11.865789 -0.615028 34.894402 -6.987571 16.318858 56.367522 -11.279741 -44.783135 59.721487 -26.504872 -6.082877 13.121958 0.893903 
-0.109180 0.369542 0.986810 -80.531481 -1.362106 80.222257 15.350414 -2.264764 -3.069280 -4.913455 -8.712774 27.653950 -12.976019 -2.264345 -6.955880 0.000000 -0.000000 0.000000 -6.509992 0.155247 -3.239172 -3.417009 7.594076 24.115088 1.873091 -0.148357 -16.564685 0.000000 -0.000000 0.000000 0.133565 2.591770 8.701081 -7.233260 2.517446 9.271682 -5.278145 2.860075 -6.552078 -3.165012 -0.734137 13.918469 -4.383436 5.375571 28.552441 -22.331382 -19.025397 1.616959 -57.949950 -19.432962 11.964019 38.126994 -55.422125 -20.974362 15.688809 -5.979517 -11.863910 2.282855 37.107351 -4.600846 25.938407 58.419360 -2.625583 -34.794049 60.611130 -13.993429 -3.207376 12.790589 6.331419 
-0.108547 0.358061 0.983537 -80.726612 -0.924830 80.647273 14.364477 -3.031286 -1.723224 -4.238342 -8.090797 25.945263 -9.850731 -0.051458 -10.307753 0.000000 -0.000000 0.000000 -6.820983 0.450299 -3.314117 -3.261412 7.706933 23.702978 2.107388 -0.514410 -16.597542 0.000000 -0.000000 0.000000 -0.137230 2.970483 8.121770 -6.532378 2.882431 9.405004 -4.861752 3.693399 -6.496763 -2.547891 -1.098419 12.871175 -4.141186 3.842326 28.925379 -21.889083 -18.428267 2.234188 -58.688445 -18.900898 11.346369 35.650650 -53.909065 -18.358544 15.599734 -5.585802 -11.355633 6.376001 38.644668 -0.790672 36.498281 58.019802 5.742778 -26.992686 60.072408 -3.873332 -0.803324 13.399949 10.355705 
-0.105800 0.345716 0.979910 -80.202799 -0.371349 81.526691 14.133108 -3.122674 -1.413272 -4.107065 -7.632100 23.635239 -7.517516 1.018953 -13.276148 0.000000 -0.000000 0.000000 -7.166381 0.493579 -3.988263 -3.243651 7.303575 23.620015 2.745974 -0.965731 -16.347628 0.000000 -0.000000 0.000000 -0.749460 3.749200 7.408157 -5.533079 3.248379 9.366277 -4.338821 4.076868 -5.955259 -1.637875 -1.413787 11.510807 -3.714882 0.821221 28.638042 -21.964702 -17.671788 2.925952 -58.820152 -19.017024 11.294206 32.260635 -52.349738 -15.763849 15.420739 -4.885785 -11.895073 11.569739 38.316195 3.106062 46.212321 55.087422 13.493726 -21.846227 58.130587 2.212298 -0.888244 12.969205 10.800601 
-0.101794 0.331758 0.976570 -78.999270 -0.069913 82.428550 13.846211 -2.219612 -1.929403 -4.482292 -7.925091 22.183874 -5.856493 1.288985 -15.082861 0.000000 -0.000000 0.000000 -7.891319 -0.301251 -4.579556 -3.489064 6.931782 23.406656 3.509841 -1.322317 -16.158864 0.000000 -0.000000 0.000000 -1.890191 4.313947 7.578907 -4.662900 3.296428 8.752763 -3.630124 4.147893 -5.365694 -1.311660 -2.149251 9.469617 -3.255495 -2.143748 27.983199 -22.183913 -16.255798 3.286647 -59.109358 -19.023893 11.589053 29.795961 -51.215894 -13.684024 17.825471 -3.274305 -12.969352 17.402733 36.299555 6.721066 52.593232 50.649559 17.961207 -16.574806 55.439955 6.395458 -1.762981 13.075713 9.320565 
-0.096452 0.316263 0.974230 -77.520847 0.156792 83.183522 13.260107 -1.788148 -2.586017 -4.818106 -7.991712 20.953487 -4.356168 1.428153 -16.485785 0.000000 -0.000000 0.000000 -8.770864 -0.975449 -5.104362 -3.804194 6.661631 23.304098 4.245912 -1.684282 -14.908188 0.000000 -0.000000 0.000000 -2.830260 4.724375 7.633443 -3.918495 3.171931 9.111412 -3.191040 3.908672 -4.738945 -1.213888 -3.064088 7.139764 -2.947960 -5.104310 26.367730 -23.195219 -14.589943 3.671083 -58.232734 -19.256083 11.714420 28.457471 -50.219536 -13.711609 19.407680 -2.658744 -13.265401 22.932768 33.508605 9.492436 54.833343 45.422572 19.521650 -12.669557 51.252714 6.764015 -2.884956 13.265609 6.648687 
-0.089127 0.299574 0.973107 -76.135979 0.572624 84.129840 12.225315 -1.845228 -3.552229 -4.523620 -8.022360 19.725007 -2.874026 2.168187 -17.520151 0.000000 -0.000000 0.000000 -9.520750 -1.287055 -6.232936 -4.089030 6.398338 23.763147 5.722937 -2.086982 -12.910317 0.000000 -0.000000 0.000000 -3.230458 4.699456 8.109830 -3.464548 3.172253 8.602435 -3.016049 3.557289 -4.015732 -1.412737 -3.662299 5.022939 -2.830347 -7.558138 25.424893 -24.364260 -12.161373 4.094264 -57.210410 -19.429318 11.774240 28.062912 -49.557375 -14.136626 17.954976 -2.954731 -14.313364 27.678125 29.653905 12.001285 53.489113 40.831122 18.680844 -8.043883 45.512834 7.048260 -2.950442 12.501030 2.488206 
-0.081858 0.282243 0.975016 -75.748402 1.045012 84.614637 10.904317 -2.335371 -2.976932 -3.645040 -8.559411 17.299829 -0.951031 3.577627 -17.530495 0.000000 -0.000000 0.000000 -10.144984 -1.506347 -7.720520 -4.094861 7.216364 25.020889 7.543003 -2.315501 -9.680177 0.000000 -0.000000 0.000000 -3.477875 4.689842 8.653895 -3.165971 3.640000 8.488473 -2.844966 3.536504 -3.404830 -1.990417 -4.463704 3.174937 -2.939062 -9.016281 24.721450 -25.522363 -9.653690 4.085447 -56.144286 -19.280416 11.903855 28.157611 -48.628896 -15.120762 17.542615 -2.392737 -14.059861 30.905257 26.177754 13.106161 50.877181 35.967569 17.057777 -5.381773 37.166428 6.073075 -1.334171 12.071514 3.391571 
-0.074066 0.266373 0.979705 -75.726501 1.893017 85.177446 10.514432 -3.524855 -2.744448 -3.428411 -9.747050 15.323982 -0.348493 5.293447 -16.325228 0.000000 -0.000000 0.000000 -10.233494 -0.609410 -9.163318 -4.010341 7.452875 25.632432 9.177788 -3.273862 -5.617994 0.000000 -0.000000 0.000000 -3.897708 4.266502 8.813231 -2.742196 4.396500 8.602217 -2.469837 3.752830 -2.938124 -2.370357 -5.310662 1.990033 -3.272484 -9.468456 23.606891 -26.185060 -7.357983 3.947452 -55.454534 -18.978331 12.081853 29.087374 -47.575821 -17.044520 15.807749 -2.911284 -14.701614 32.285276 23.861705 13.305742 48.272153 31.380517 15.379516 -5.341552 26.237017 3.256104 2.617532 9.897463 6.130048 
